<?xml version="1.0" standalone="no"?><!DOCTYPE svg PUBLIC "-//W3C//DTD SVG 1.1//EN" "http://www.w3.org/Graphics/SVG/1.1/DTD/svg11.dtd"><svg t="1575426392238" class="icon" viewBox="0 0 1133 1024" version="1.1" xmlns="http://www.w3.org/2000/svg" p-id="1092" xmlns:xlink="http://www.w3.org/1999/xlink" width="221.2890625" height="200"><defs><style type="text/css"></style></defs><path d="M594.743825 224.022583c-6.503881-13.730416-16.62103-13.730416-23.124912 0L488.513761 399.627382c-6.503881 13.730416 0.722653 24.570219 15.175724 24.570219h158.983768c15.175723 0 21.679605-10.839802 15.175724-24.570219L594.743825 224.022583zM323.748765 745.778405c-6.503881 13.730416 0.722653 24.570219 15.175723 24.570219h488.513762c15.175723 0 21.679605-10.839802 15.175723-24.570219l-44.081863-91.776994c-6.503881-13.730416-23.847565-24.570219-38.300635-24.570218h-354.100212c-15.175723 0-32.519407 10.839802-38.300635 24.570218l-44.081863 91.776994z" fill="#595959" p-id="1093"></path><path d="M487.068454 458.884968c-15.175723 0-32.519407 10.839802-38.300635 24.570219l-41.191249 86.718419c-6.503881 13.730416 0.722653 24.570219 15.175724 24.570219H744.333098c15.175723 0 21.679605-10.839802 15.175723-24.570219l-41.191249-86.718419c-6.503881-13.730416-23.847565-24.570219-38.300635-24.570219H487.068454z" fill="#BF618C" p-id="1094"></path><path d="M909.098095 849.117855c0 16.62103-13.730416 29.628793-29.628794 29.628793H287.61609c-16.62103 0-29.628793-13.730416-29.628793-29.628793v-9.394496c0-16.62103 13.730416-29.628793 29.628793-29.628793h591.130558c16.62103 0 29.628793 13.730416 29.628793 29.628793v9.394496z" fill="#17BADE" p-id="1095"></path></svg>